<?xml version="1.0" encoding="UTF-8"?>
<svg width="24px" height="24px" viewBox="0 0 24 24" version="1.1" xmlns="http://www.w3.org/2000/svg" xmlns:xlink="http://www.w3.org/1999/xlink">
    <!-- Generator: sketchtool 63.1 (101010) - https://sketch.com -->
    <title>51C1CD80-F504-4727-B8B4-A13B33E4E140</title>
    <desc>Created with sketchtool.</desc>
    <g id="[UI]PROVEEDOR-/-CARGAR-INVENTARIO" stroke="none" stroke-width="1" fill="none" fill-rule="evenodd">
        <g id="02_D[Inventario]Cargar-archivo-Error" transform="translate(-498.000000, -463.000000)" fill="#E24D56">
            <g id="Group-2" transform="translate(426.000000, 147.000000)">
                <path d="M84,316 C90.627417,316 96,321.372583 96,328 C96,334.627417 90.627417,340 84,340 C77.372583,340 72,334.627417 72,328 C72,321.372583 77.372583,316 84,316 Z M87.2126531,324 C87.0118163,324 86.8192537,324.080008 86.677551,324.222331 L86.677551,324.222331 L84,326.899066 L81.322449,324.222331 C81.1807463,324.080008 80.9881837,324 80.7873469,324 C80.5865102,324 80.3939476,324.080008 80.2522449,324.222331 L80.2522449,324.222331 L80.1744706,324.313115 C80.0811192,324.44139 80.0299138,324.596764 80.0299138,324.757433 C80.0299138,324.95827 80.1099222,325.150832 80.2522449,325.292535 L80.2522449,325.292535 L82.9289796,327.970086 L80.2522449,330.647637 C80.1099222,330.78934 80.0299138,330.981902 80.0299138,331.182739 C80.0299138,331.383576 80.1099222,331.576139 80.2522449,331.717841 L80.2522449,331.717841 L80.343029,331.795616 C80.4713036,331.888967 80.6266775,331.940172 80.7873469,331.940172 C80.9881837,331.940172 81.1807463,331.860164 81.322449,331.717841 L81.322449,331.717841 L84,329.041107 L86.677551,331.717841 C86.8192537,331.860164 87.0118163,331.940172 87.2126531,331.940172 C87.4134898,331.940172 87.6060524,331.860164 87.7477551,331.717841 L87.7477551,331.717841 L87.8255294,331.627057 C87.9188808,331.498783 87.9700862,331.343409 87.9700862,331.182739 C87.9700862,330.981902 87.8900778,330.78934 87.7477551,330.647637 L87.7477551,330.647637 L85.0710204,327.970086 L87.7477551,325.292535 C87.8900778,325.150832 87.9700862,324.95827 87.9700862,324.757433 C87.9700862,324.556596 87.8900778,324.364034 87.7477551,324.222331 L87.7477551,324.222331 L87.656971,324.144557 C87.5286964,324.051205 87.3733225,324 87.2126531,324 Z" id="Combined-Shape"></path>
            </g>
        </g>
    </g>
</svg>